<svg xmlns="http://www.w3.org/2000/svg" xmlns:xlink="http://www.w3.org/1999/xlink" viewBox="0 0 684.16 437.08"><defs><style>.cls-1{isolation:isolate;}.cls-2{fill:#98c4f9;}.cls-10,.cls-29,.cls-3{opacity:0.25;mix-blend-mode:overlay;}.cls-4{fill:#ff6643;}.cls-5{fill:#092533;}.cls-6{fill:url(#linear-gradient);}.cls-7{fill:url(#linear-gradient-2);}.cls-8{fill:#4d5aff;}.cls-9{fill:url(#linear-gradient-3);}.cls-10,.cls-18,.cls-29{fill:none;stroke-miterlimit:10;}.cls-10{stroke:#fff;}.cls-10,.cls-29{stroke-width:0.46px;}.cls-11{fill:#6c5be8;}.cls-12{fill:#ff9280;}.cls-13{fill:#350909;}.cls-14{fill:url(#linear-gradient-4);}.cls-15{fill:url(#linear-gradient-5);}.cls-16{fill:#12006d;}.cls-17{fill:url(#linear-gradient-6);}.cls-18{stroke:#092533;stroke-width:0.92px;}.cls-19{fill:url(#linear-gradient-7);}.cls-20{fill:url(#linear-gradient-8);}.cls-21{fill:url(#linear-gradient-9);}.cls-22{fill:url(#linear-gradient-10);}.cls-23{fill:url(#linear-gradient-11);}.cls-24{fill:#ff7900;}.cls-25{fill:#c64200;}.cls-26{fill:url(#linear-gradient-12);}.cls-27{fill:url(#linear-gradient-13);}.cls-28{fill:#ffb000;}.cls-29{stroke:#000;}</style><linearGradient id="linear-gradient" x1="145.41" y1="234.55" x2="146.31" y2="226.03" gradientUnits="userSpaceOnUse"><stop offset="0" stop-color="#ffc5ae"/><stop offset="1" stop-color="#ea8b6a"/></linearGradient><linearGradient id="linear-gradient-2" x1="156.77" y1="231.7" x2="148.9" y2="232.28" xlink:href="#linear-gradient"/><linearGradient id="linear-gradient-3" x1="146.47" y1="263.81" x2="153.68" y2="237.92" xlink:href="#linear-gradient"/><linearGradient id="linear-gradient-4" x1="434.15" y1="168.88" x2="434.47" y2="161.38" xlink:href="#linear-gradient"/><linearGradient id="linear-gradient-5" x1="435.6" y1="172.07" x2="435.36" y2="166.74" xlink:href="#linear-gradient"/><linearGradient id="linear-gradient-6" x1="419.17" y1="212.27" x2="425.06" y2="173.92" xlink:href="#linear-gradient"/><linearGradient id="linear-gradient-7" x1="452.17" y1="166.02" x2="456.76" y2="190.22" xlink:href="#linear-gradient"/><linearGradient id="linear-gradient-8" x1="322.04" y1="130.32" x2="324.9" y2="136.42" xlink:href="#linear-gradient"/><linearGradient id="linear-gradient-9" x1="317.69" y1="130.17" x2="324.81" y2="133.16" xlink:href="#linear-gradient"/><linearGradient id="linear-gradient-10" x1="321.78" y1="127.88" x2="326.37" y2="137.63" xlink:href="#linear-gradient"/><linearGradient id="linear-gradient-11" x1="387.11" y1="137.53" x2="374.08" y2="153.01" xlink:href="#linear-gradient"/><linearGradient id="linear-gradient-12" x1="350.68" y1="161.13" x2="349.28" y2="144.91" xlink:href="#linear-gradient"/><linearGradient id="linear-gradient-13" x1="348.29" y1="161.26" x2="348.95" y2="157.08" xlink:href="#linear-gradient"/></defs><title>404</title><g class="cls-1"><g id="OBJECTS"><path class="cls-2" d="M518.68,304.54l-9.2-27-15.35,5.23-31.36-92-35,11.92.1.31-11.27,48.68-16.05,69.25L410,341.59l33-11.25,12-4.1,13.38-4.56,10.92,32.06,35-11.91-10.93-32.06Zm-63.57-8.44-7.93,2.7L432,304l10.36-51.48,1-4.27,15.84,46.48Z"/><polygon class="cls-3" points="503.32 309.77 514.25 341.83 491.98 332.3 456.38 204.06 443.33 248.23 437.28 273.25 416.64 251.68 427.91 203 427.81 202.69 462.77 190.77 494.13 282.8 509.49 277.56 518.68 304.54 503.32 309.77"/><path class="cls-3" d="M455,326.24l-12,4.1,1.77-24.76v-4.52l2.45-2.26,1.57-1.45,6.36-1.25S454.71,314.29,455,326.24Z"/><path class="cls-4" d="M455.11,296.09a10,10,0,0,0-8.25-3.33c-5.24.44-8.17,2.4-8.35,7.86s1.13,33-.07,43.92,6.25,12,6.68,3.93-2.74-33.43-.39-37.58.92,4.59,3.38,7.43,5.09-2.18,2.46-9S455.11,296.09,455.11,296.09Z"/><path class="cls-4" d="M134.93,255.31a6.22,6.22,0,0,1-1.85-.17c-.33-.14-1.36-.57-10.28-16.49l1.61-.9c3.33,5.94,8.38,14.6,9.45,15.71a96.7,96.7,0,0,0,11-.69l.18,1.83C142.1,254.9,137.54,255.31,134.93,255.31Z"/><path class="cls-5" d="M167.27,263v.53s-.48,10.11-8.05,9.68h-.06c-4.68-.3-10.47-2.48-14.35-4.11-2.45-1-4.14-1.82-4.33-1.79-.49.08,5.74,26,5.65,27.45a2.49,2.49,0,0,1-.12.63c-.44,1.4-2,3.08-2.91,3.22-.09,0-.29-.17-.57-.52-2.81-3.5-13.95-23.82-14.26-30.45-.32-7.29,3.36-11.68,8.36-12.52,3.69-.61,14.47.87,19.87,1.69l3.15.5Z"/><path class="cls-3" d="M146.13,294.78a2.49,2.49,0,0,1-.12.63c-.44,1.4-2,3.08-2.91,3.22-.09,0-.29-.17-.57-.52,4-5.59-6.4-32.83-4.14-32.91,1.11,0,3.57,1.85,6.42,3.92-2.45-1-4.14-1.82-4.33-1.79C140,267.41,146.22,293.3,146.13,294.78Z"/><path class="cls-3" d="M167.27,263v.53s-.48,10.11-8.05,9.68c1.49-1.19,1.76-3.29,1.65-5.83-.13-2.94-2.84-8-4.37-10.58l3.15.5Z"/><path class="cls-5" d="M151.17,229.84a2.11,2.11,0,0,0-.42,1l0,0c-.09-.16-.4-.7-.81-1.34-.69-1.06-1.64-2.39-2.22-2.55-.92-.25-3.38,2.86-6.71,3.1a4.85,4.85,0,0,1-.66,0c-3.66-.17-7.54-5.36-4.42-11.47a4,4,0,0,0,3.32,2.29,1.92,1.92,0,0,1-1.41-2c4,.71,6.06-2.29,9.5-1.2s3.22,3.17,3.22,3.17,2.62-1,3.44,2.24C154.63,225.68,152.18,228.27,151.17,229.84Z"/><path class="cls-6" d="M150.72,230.77a6.91,6.91,0,0,1-1.28,2.46,3.61,3.61,0,0,1-2.79,1.52c-2.32-.06-4.64-3.18-5.67-4.77,3.33-.24,5.79-3.35,6.71-3.1.58.16,1.53,1.49,2.22,2.55C150.32,230.07,150.63,230.61,150.72,230.77Z"/><path class="cls-7" d="M154.08,231.09s-1.74,4-2.4,3.12a4.32,4.32,0,0,0-2.24-1,6.91,6.91,0,0,0,1.28-2.46l0,0a2.11,2.11,0,0,1,.42-1A7.89,7.89,0,0,0,154.08,231.09Z"/><path class="cls-8" d="M166.37,264.79c-2.78-.41-10.32-8.6-10.32-12.13a10.29,10.29,0,0,0-.15-1.65c-.58-3.67-2.7-9-3.58-12.85-1-4.42.45-6.07.45-6.07,3.43-5.9,11.19,5.79,15.62,15.16h0a24.22,24.22,0,0,1,2.56,8.05C171.28,262,169.16,265.2,166.37,264.79Z"/><path class="cls-3" d="M166.37,264.79c-2.78-.41-10.32-8.6-10.32-12.13a10.29,10.29,0,0,0-.15-1.65v-1.57l2.73-14.31s3.77,4.49,4.37,12.51,9.43,9.78,5.41-.38a24.22,24.22,0,0,1,2.56,8.05C171.28,262,169.16,265.2,166.37,264.79Z"/><path class="cls-8" d="M160.53,247.1a1.19,1.19,0,0,1-.37.16,22,22,0,0,1-6.63,0,2.64,2.64,0,0,1-.54-.15c-1-.5,0-1.7-.33-3.83s-1.14-8.36,2-10.27,5.73,5.57,5.84,9.34S161.24,246.49,160.53,247.1Z"/><path class="cls-9" d="M160.16,247.26s-.16,9.21-1.91,13.55h0c-.55,1.35-1.25,2.23-2.16,2.21-3.81-.08-12.37-9.13-13.15-9.47s-4.67.25-4.55-.32,1.64-1.85,3.28-2.46,1.35-.25,11.88,4.59c-.14-.93-.08-5,0-7.22,0-.35,0-.65,0-.9A22,22,0,0,0,160.16,247.26Z"/><path class="cls-8" d="M149.27,301c.27,1.64-10.75,12.86-10.18,9.91s4-12.29,4-12.29c.93-.14,2.47-1.82,2.91-3.22C146.91,297,149.05,299.64,149.27,301Z"/><path class="cls-10" d="M159.22,266.54s-17.7-3.32-21.2-1.72,6.4,29.58,6.4,29.58"/><path class="cls-3" d="M158.25,260.81c.33-1.85.59-7.22-.34-9.35-.63-1.43-2.95-2.66-4.4-3.31,0-.35,0-.65,0-.9a22,22,0,0,0,6.63,0S160,256.47,158.25,260.81Z"/><path class="cls-11" d="M444.26,198.53a51.65,51.65,0,0,1-1.89,5.53c-1.32,3.41-3.32,8.05-6.27,14.52-.07,3.29-1.12,24.26-1.41,29.09,0,.58-.06.93-.06,1a2.92,2.92,0,0,1-1.63.82c-.78.21-1.62.23-2-.25-.74-1-5.74-20.81-6-25.48s-.49-3.6,5.24-22.2c-1.39.65-10.42.41-10.42.41s1.65,22.78,1.66,22.94a.57.57,0,0,1,0,.16,4.23,4.23,0,0,1-.8,1.35c-.16.16-.33.26-.48.21a2.55,2.55,0,0,1-.6-.54,60.89,60.89,0,0,1-9.07-13.8c-3-6.8-3.77-11.55-.9-16.3s17.4-5.12,17.4-5.12c.92.26,3,.51,5.13,1,.61.14,1.23.31,1.81.5,3.18,1.06,9.24,2.4,10.55,1.65A8,8,0,0,1,444.26,198.53Z"/><path class="cls-4" d="M456.3,182.7c-.58.32-7.25.07-11.76-1.65,0,.8.12,2,.24,3.47.18,2.24.38,4.9.33,6.84,0,1.39-.19,2.41-.57,2.64h0c-.7.4-2.73.21-5-.22-1.45-.27-3-.64-4.27-1-.48-.13-.92-.27-1.32-.41-2.56-.85-5.75-1.18-6.94-1.51-.3-.08-.47-.16-.48-.25,0-.45,1.11-1.47,1.65-2.54.06-.13.15-.33.25-.58a46.68,46.68,0,0,0,1.45-4.58c.2-.8.27-1.32.1-1.23-.54.29-3.69,6.18-4.06,6.18a7,7,0,0,1-1.52-.87c-1.27-.86-2.86-2.12-2.9-2.73a.22.22,0,0,1,.08-.2c.74-.7,6.39-10.2,8.44-12.23a8.28,8.28,0,0,1,3-1.87,8.39,8.39,0,0,1,1.81-.48,12.82,12.82,0,0,1,3.64.43c4.07,1,7.8,3.58,9.92,4.85,2.75,1.63,4.63,1.18,5.32,1.59S456.87,182.36,456.3,182.7Z"/><path class="cls-12" d="M445.11,191.36c-3.78,0-12.18-.29-16.66-3.88a46.68,46.68,0,0,0,1.45-4.58s8.87,2.69,14.88,1.62C445,186.76,445.16,189.42,445.11,191.36Z"/><path class="cls-3" d="M438.51,169.9c-.14,1.57-.7,3.26-2.41,3.13a3.23,3.23,0,0,1-3-3.08,8.39,8.39,0,0,1,1.81-.48A12.82,12.82,0,0,1,438.51,169.9Z"/><path class="cls-13" d="M437.49,166.47a6.73,6.73,0,0,0-1.23-2.54c-.66,1.08-3.23,1.64-5.22,1.78a7.71,7.71,0,0,1-2.15-.06,6.08,6.08,0,0,1,5.37-8c2.41-.16,4.59,1.64,3.93,4.38C440.36,164.22,437.49,166.47,437.49,166.47Z"/><path class="cls-14" d="M437.49,166.47a8.82,8.82,0,0,1-.64,1.58h0a2.22,2.22,0,0,1-3,1.21l-.16-.08a4.67,4.67,0,0,1-2.37-2.69,6,6,0,0,1-.24-.78c2-.14,4.56-.7,5.22-1.78l.11.12A7.11,7.11,0,0,1,437.49,166.47Z"/><path class="cls-15" d="M437.29,170.65c-.25,1.52-2.75,1.44-3,.45-.14-.51-.3-1-.43-1.36s-.19-.55-.19-.55h0l.16.08a2.22,2.22,0,0,0,3-1.21h0c-.17.34.28.77.43,1.57A2.93,2.93,0,0,1,437.29,170.65Z"/><path class="cls-16" d="M424.3,230.71c-.24,1.88-10,9.26-9.83,7.95s5.13-12.59,5.13-12.59a2.55,2.55,0,0,0,.6.54c.5.14,1.12-1.11,1.28-1.56C422.79,226.69,424.52,229,424.3,230.71Z"/><path class="cls-16" d="M431,264.58c-2.29-4.92,0-15.36,0-15.36.74,1,3.52-.16,3.61-.57,0-.05,0-.4.06-1,0,0,.37,5,.81,9.23S433.31,269.49,431,264.58Z"/><path class="cls-3" d="M430.28,201.54c-1.39.65-10.42.41-10.42.41s1.65,22.78,1.66,22.94a.57.57,0,0,1,0,.16,4.23,4.23,0,0,1-.8,1.35c-1.66-7.79-5-22.73-2.33-25.3,3.38-3.27,12.56-4.15,12.69-3.43A18.52,18.52,0,0,1,430.28,201.54Z"/><path class="cls-17" d="M423.78,190.78a1.1,1.1,0,0,0-.16.66c.2.76-.85,10.32-.47,11.3a18.18,18.18,0,0,1,.39,6.06c-.22,2-4.32,3.17-4.32,1.48s.49-5.68.66-7.21-1.37-12.59-1-14.12a17.58,17.58,0,0,1,2-3.74l.63-1c.06,1,4.09,3.6,4.42,3.6A18.53,18.53,0,0,0,423.78,190.78Z"/><path class="cls-3" d="M444.26,198.53a8.47,8.47,0,0,1-5.26-2.35,25.88,25.88,0,0,0-6.84-4.32c.61.14,1.23.31,1.81.5,3.18,1.06,9.24,2.4,10.55,1.65A8,8,0,0,1,444.26,198.53Z"/><path class="cls-3" d="M442.37,204.06c-1.32,3.41-3.32,8.05-6.27,14.52-.07,3.29-1.12,24.26-1.41,29.09,0,.58-.06.93-.06,1a2.92,2.92,0,0,1-1.63.82c.19-7.07-.06-22.46,1.13-27C435.56,217,442,204.81,442.37,204.06Z"/><path class="cls-3" d="M435.29,192.77c-.48-.13-.92-.27-1.32-.41-2.56-.85-5.75-1.18-6.94-1.51-.3-.08-.47-.16-.48-.25,0-.45,1.11-1.47,1.65-2.54s2.33-6.68,1.8-6.39-3.69,6.18-4.06,6.18a7,7,0,0,1-1.52-.87c.08-.13.17-.27.27-.41,2-2.89,5.18-6.5,5.73-9.61.44-2.3,1.09-1,1,2C431.3,181.57,431.16,189.68,435.29,192.77Z"/><path class="cls-3" d="M444.54,194h0c-.7.4-2.73.21-5-.22,4-4,1.81-14.85,2.44-14.29a16.42,16.42,0,0,0,2.54,1.55C444.62,184,445.81,193.22,444.54,194Z"/><path class="cls-3" d="M425.94,187.85a18.53,18.53,0,0,0-2.16,2.93c0-.25,0-.47,0-.67-.12-1.18-2-3.72-2.84-4.9l.63-1C421.58,185.22,425.61,187.85,425.94,187.85Z"/><path class="cls-3" d="M436.37,164.05c-1,2.18-3.87,2.43-5.09,2.44a6,6,0,0,1-.24-.78c2-.14,4.56-.7,5.22-1.78Z"/><path class="cls-3" d="M437.28,169.62a1.69,1.69,0,0,1-.69.31,4.25,4.25,0,0,1-2.75-.19c-.11-.34-.19-.55-.19-.55h0l.16.08a2.22,2.22,0,0,0,3-1.21h0C436.68,168.39,437.13,168.82,437.28,169.62Z"/><line class="cls-18" x1="450.36" x2="450.36" y2="204.06"/><path class="cls-19" d="M459,179.77l0,.16c-.55,2.47-2.52,2.73-2.89,2.57s-1.36-1.29-2.22-5.27c0-.08,0-.16-.05-.24s-1.86-4.77-2.73-7.06c-2.16-1.27-2.57-.76-2.87-2.23a4.33,4.33,0,0,1,1.2-3.66c.55-.27,3,2,3.34,2.87S459.45,177.15,459,179.77Z"/><path class="cls-3" d="M458.93,179.93c-.55,2.47-2.52,2.73-2.89,2.57s-1.36-1.29-2.22-5.27a8.5,8.5,0,0,0,2.31,3.13A2,2,0,0,0,458.93,179.93Z"/><path class="cls-4" d="M386.54,309l-5.27-26.91q-5.85-29.85-22.55-43.56t-41.28-8.89q-24.57,4.81-34.84,23.69t-4.41,48.84l5.29,27q5.82,29.74,22.53,43.45a43.49,43.49,0,0,0,15.53,8.27q11.59,3.41,25.84.61a62.22,62.22,0,0,0,13.48-4.18,43.93,43.93,0,0,0,21.27-19.5Q392.41,339,386.54,309Zm-32.89,36.12q-2.7,8.26-11.43,10-9,1.77-14.7-5.08-3.87-4.66-6.61-13.86h0a0,0,0,0,0,0,0c-.84-2.84-1.61-6-2.29-9.5l-7.39-37.77q-2.61-14.89,0-23T322.61,256a14.21,14.21,0,0,1,11.63,2.27h0a16.67,16.67,0,0,1,3.11,3q5.72,7.05,8.83,23l7.15,36.56Q356.36,336.84,353.65,345.12Z"/><path class="cls-3" d="M356.29,350.17c1.52,2.33,3.54,18.21,4.57,27.16a62.22,62.22,0,0,1-13.48,4.18q-14.25,2.78-25.84-.61a20.36,20.36,0,0,0,.85-2.22c4.83-14.74-1.2-41.32-1.48-42.52q2.74,9.19,6.61,13.86,5.66,6.86,14.7,5.08,8.73-1.71,11.43-10t-.32-24.24l-7.15-36.56q-3.12-15.93-8.83-23a16.67,16.67,0,0,0-3.11-3c11.63,2.28,21.07,38.28,25,55.64S363.51,339.35,356.29,350.17Z"/><path class="cls-11" d="M323.48,343.23s.75,2,4.71,3.06,7.68-5,10.3-3.06,6.82,10.13,10.51,8.89,4.78,18.42,3,20.61-3-15.48-7.62-15-1.12,13.85-3.75,16.26-1.53-5.9-4.37-7.43,3.06,66.86-1.31,67.95-7.21-3.06-5.46-17.7-.44-65.11-3.06-67.73S324,346,323.48,343.23Z"/><line class="cls-18" x1="322.39" x2="322.39" y2="238.57"/><path class="cls-16" d="M379.11,146.32s-3.48-9.55-3.19-10.29,4.11-2.13,4.39-1.72,2.7,7.83,2.29,8.36S379.11,146.32,379.11,146.32Z"/><path class="cls-20" d="M321.19,133.8a6.26,6.26,0,0,1,3.07,3.18c.94,2.29.57-6,.57-6l-1-.94Z"/><path class="cls-21" d="M320.08,133.8a30.5,30.5,0,0,0,3.11,2.11c.46.12,1.33-5.08.93-5.9s-1.84-1.64-2.77-1.11S319.64,133.48,320.08,133.8Z"/><path class="cls-22" d="M327.17,134.39s-2.12-4.91-3.05-5.77-2.65.24-2.77.69,2.06.78,2.77,1.52-1.21,6.19.63,8.11S327.17,134.39,327.17,134.39Z"/><path class="cls-23" d="M376.49,147.42a11.56,11.56,0,0,0,2.3-1.56c.41-.53-.33-2.54.86-4.38s3.72-1.31,4.34.9-1,5-1.72,5.86-5.78,4.47-5.78,4.47"/><path class="cls-24" d="M377.84,151.7a4.45,4.45,0,0,1-1,1.65c-2.39,2.79-9,8.26-20.85,14.51a29.27,29.27,0,0,0-.56,2.91,48.3,48.3,0,0,0-.29,9.08c0,.73.09,1.44.14,2.12.21,3,.51,5.44.43,6.86a1.91,1.91,0,0,1-.36,1.24,7.08,7.08,0,0,1-.84.63c-5.93,3.81-16.73-1.88-18.47-3.59a.79.79,0,0,1-.24-.32c-.31-1.15.87-2.37,1.53-4.34a13.69,13.69,0,0,0,.33-2.11c.31-3,.58-8.45.68-12.53a38.89,38.89,0,0,0-.08-5.2v0c-.33-1.34-10.27-16.36-13.26-21.68a6.5,6.5,0,0,1-.84-1.81c.11-1.2,2.41-5.46,2.9-5.4a4.84,4.84,0,0,1,.84,1c2.31,3.2,8.5,12.87,9.65,14.11s6.49,6.87,8.82,9.32l1.06,1.11a26.94,26.94,0,0,0,3.79-.33c11.18-1.73,22.16-9.55,25-11.73.47-.35.72-.56.72-.56S378.09,150.16,377.84,151.7Z"/><path class="cls-25" d="M350,164.2c-3.81.62-3.82-4.34-3.62-6l1.06,1.11a26.94,26.94,0,0,0,3.79-.33C351.66,160.88,351.28,164,350,164.2Z"/><path class="cls-16" d="M353.81,153.57a3.69,3.69,0,0,1-2.94.28,11.08,11.08,0,0,1-3.34-1.63,6.08,6.08,0,0,0-1.11,3.48c-2.7-2.34-3.36-4.68-1.06-5.54-.94-4.09,1.06-4.95,4.42-5.15s4.14,3.23,6.15,3.15C356.05,150,355.53,152.56,353.81,153.57Z"/><path class="cls-26" d="M353.81,153.57c0,.33-.09.71-.17,1.12-.45,2.4-1.63,5.74-3.4,5.56l-.29-.06a5.49,5.49,0,0,1-3.06-3.19,8.78,8.78,0,0,1-.47-1.3,7.42,7.42,0,0,1,.3-1.83,5,5,0,0,1,.81-1.65,11.08,11.08,0,0,0,3.34,1.63A3.69,3.69,0,0,0,353.81,153.57Z"/><path class="cls-27" d="M350.24,161.66c0,.87-.14,1.55-.72,1.59-1.17.08-2.73-1.45-2.65-3.11,0-.57,0-1.17,0-1.72s0-1.06,0-1.42a5.49,5.49,0,0,0,3.06,3.19l.29.06C350.24,160.73,350.25,161.22,350.24,161.66Z"/><path class="cls-25" d="M377.84,151.7a4.45,4.45,0,0,1-1,1.65,45.53,45.53,0,0,0-.58-6.15c.47-.35.72-.56.72-.56S378.09,150.16,377.84,151.7Z"/><path class="cls-25" d="M327.86,134.72c-1.74,1.5-2.59,4.75-2.9,6.19a6.5,6.5,0,0,1-.84-1.81c.11-1.2,2.41-5.46,2.9-5.4A4.84,4.84,0,0,1,327.86,134.72Z"/><path class="cls-28" d="M355.24,182c-3.91.56-11.26,1.07-17.62-1.63.31-3,.58-8.45.68-12.53,3.15,1.33,9.95,3.71,17.09,3A52.21,52.21,0,0,0,355.24,182Z"/><path class="cls-3" d="M354.47,190.7c-6.39,4.11-18.43-2.81-18.71-3.91s.87-2.37,1.53-4.34a13.69,13.69,0,0,0,.33-2.11c.31-3,.58-8.45.68-12.53a38.89,38.89,0,0,0-.08-5.2,112.87,112.87,0,0,1,3.41,13.94c1.15,6.88.9,10.16,4.26,12.37C347.86,190.21,351.45,190.89,354.47,190.7Z"/><path class="cls-2" d="M369.08,209.62c0,2.84-10.28,18.59-12.4,21.82l-.39.58a14.63,14.63,0,0,1-2.41-.52c-.76-.26-1.41-.62-1.41-1.12a3.65,3.65,0,0,1,0-.46c.37-2.2,2.63-10.13,5.52-20.62-1.52-1.86-12.23-9-12.23-9a0,0,0,0,0,0,0c-.47,1.07-15.33,35.44-17,38.65l-.12.22c-.77,1-3.94,1.09-4.16-1h0c-.91-8.69,6.59-34.9,10.08-46.49.62-2.08,1.12-3.68,1.42-4.64,1.74,1.71,12.54,7.4,18.47,3.59a7.08,7.08,0,0,0,.84-.63,1.91,1.91,0,0,0,.36-1.24l.34.39C360.15,194,369.08,206.89,369.08,209.62Z"/><path class="cls-16" d="M329.83,243.82c-.41,2-11.22,8.11-10.24,4.44.8-3,3.81-8.17,4.91-10h0c.22,2.07,3.39,2,4.16,1l.12-.22C329.34,240.59,330.1,242.49,329.83,243.82Z"/><path class="cls-16" d="M360.23,242c-.82.41-11.47-3.69-11.23-5.08s3.52-7,3.52-7a3.65,3.65,0,0,0,0,.46c0,1.2,3.82,1.64,3.82,1.64l.39-.58C357.15,235.69,361,241.63,360.23,242Z"/><path class="cls-29" d="M344.42,199.16s-11.8,23.17-16.23,39.08"/><path class="cls-29" d="M347.2,199.16s13.11,8.61,13.6,10-6.8,20.76-6.8,20.76"/><path class="cls-3" d="M356,189.22c-1.44,5.76-9.8,4.2-14.08,3.09a25.5,25.5,0,0,0-7.35-.56c.62-2.08,1.12-3.68,1.42-4.64,1.74,1.71,12.54,7.4,18.47,3.59a7.08,7.08,0,0,0,.84-.63,1.91,1.91,0,0,0,.36-1.24Z"/><path class="cls-3" d="M353.88,231.5c-.76-.26-1.41-.62-1.41-1.12a3.65,3.65,0,0,1,0-.46c.37-2.2,2.63-10.13,5.52-20.62-1.52-1.86-12.23-9-12.23-9s.87-3,1.86-3.17,12.34,9.56,13.59,11.58C362.37,210.53,354.64,225,353.88,231.5Z"/><path class="cls-3" d="M353.81,153.57c0,.33-.09.71-.17,1.12-2.86,1.46-5.67-1.82-6-1.78-.19,0-.59.52-.91,1a5,5,0,0,1,.81-1.65,11.08,11.08,0,0,0,3.34,1.63A3.69,3.69,0,0,0,353.81,153.57Z"/><path class="cls-3" d="M350.24,161.66c-1.89-.46-2.93-2.36-3.33-3.24,0-.56,0-1.06,0-1.42a5.49,5.49,0,0,0,3.06,3.19l.29.06C350.24,160.73,350.25,161.22,350.24,161.66Z"/><path class="cls-3" d="M355.39,170.77a48.3,48.3,0,0,0-.29,9.08c-.74-3.14-1.39-6.51-.63-8.46a21.63,21.63,0,0,1,1.48-3.53A29.27,29.27,0,0,0,355.39,170.77Z"/><path class="cls-11" d="M263.4,202.12,228,196l-.05.32-78.12,87.95-1.61,22,11.2,1.93,19.39,3.33,26,4.47,2.48.43-1.86,10.84-.87,5-2.84,16.57,23,4L237.15,355l5.57-32.43,15.54,2.66L263,297.9l-15.54-2.67Zm-44.15,45.07-7.22,42-8.63-1.48-18.87-3.24L195,272l2.39-2.85,19.93-23.78,2.82-3.19Z"/><path class="cls-3" d="M204.87,316l-26-4.47c3.07-10.13,6.9-24.08,5.69-27.12l18.87,3.24a18.9,18.9,0,0,1,2.43,8.59C206.29,303,205.28,309.86,204.87,316Z"/><path class="cls-2" d="M185.66,284.62s2.84-3.94,9.23-2.71,6.88,9.1,4.09,17.79-3.44,39-2.13,48.83.49,14.42-2.62,14.75-4.59-11.8-2.78-20.32,1.63-16.39-1.32-15.08-.49,4.59-2,7.54-5.9,1.15-5.74-4.43S191.51,289.21,185.66,284.62Z"/><polygon class="cls-3" points="247.41 295.23 262.95 297.9 258.26 325.19 242.72 322.53 237.15 354.96 224.8 352.84 246.5 217.41 263.4 202.12 247.41 295.23"/><line class="cls-18" x1="236.84" x2="236.84" y2="211.09"/><path class="cls-24" d="M302.71,162.61a6.39,6.39,0,1,1-6.39-6.39A6.39,6.39,0,0,1,302.71,162.61Z"/><path class="cls-11" d="M525.07,243.83a6.39,6.39,0,1,1-6.39-6.4A6.39,6.39,0,0,1,525.07,243.83Z"/><path class="cls-2" d="M190.92,197.16a6.39,6.39,0,1,1-6.39-6.39A6.4,6.4,0,0,1,190.92,197.16Z"/><path class="cls-4" d="M296.32,392.61a6.39,6.39,0,1,1-6.39-6.39A6.39,6.39,0,0,1,296.32,392.61Z"/><circle class="cls-24" cx="482.15" cy="181.85" r="2.46"/><circle class="cls-2" cx="293.86" cy="220.23" r="2.46"/><path class="cls-11" d="M222.58,186.85a2.47,2.47,0,1,1-2.46-2.46A2.46,2.46,0,0,1,222.58,186.85Z"/></g></g></svg>